# AST/ASF file generated using VICON BodyLanguage
# -----------------------------------------------
:version 1.10
:name VICON
:units
  mass 1.0
  length 0.45
  angle deg
:documentation
   .ast/.asf automatically generated from VICON data using
   VICON BodyBuilder and BodyLanguage model FoxedUp or BRILLIANT.MOD
:root
   order TX TY TZ RX RY RZ
   axis XYZ
   position 0 0 0  
   orientation 0 0 0 
:bonedata
  begin
     id 1 
     name lhipjoint
     direction 0.567725 -0.736092 0.368589 
     length 2.42353 
     axis 0 0 0  XYZ
  end
  begin
     id 2 
     name lfemur
     direction 0.34202 -0.939693 0  
     length 7.24894  
     axis 0 0 20  XYZ
    dof rx ry rz
    limits (-160.0 20.0)
           (-70.0 70.0)
           (-60.0 70.0)
  end
  begin
     id 3 
     name ltibia
     direction 0.34202 -0.939693 0   
     length 7.6997   
     axis 0 0 20   XYZ
    dof rx
    limits (-10.0 170.0)
  end
  begin
     id 4 
     name lfoot
     direction 0.100767 -0.276854 0.955614   
     length 2.37556   
     axis -90 7.62852e-016 20   XYZ
    dof rx rz
    limits (-45.0 90.0)
           (-70.0 20.0)
  end
  begin
     id 5 
     name ltoes
     direction 1.53592e-011 -4.21894e-011 1   
     length 1.18363   
     axis -90 7.62852e-016 20   XYZ
    dof rx
    limits (-90.0 20.0)
  end
  begin
     id 6 
     name rhipjoint
     direction -0.556459 -0.742938 0.372017   
     length 2.4012  
     axis 0 0 0  XYZ 
  end
  begin
     id 7 
     name rfemur
     direction -0.34202 -0.939693 0   
     length 7.5119   
     axis 0 0 -20   XYZ
    dof rx ry rz
    limits (-160.0 20.0)
           (-70.0 70.0)
           (-70.0 60.0)
  end
  begin
     id 8 
     name rtibia
     direction -0.34202 -0.939693 0   
     length 7.50155   
     axis 0 0 -20   XYZ
    dof rx
    limits (-10.0 170.0)
 end
 begin
     id 9 
     name rfoot
     direction -0.118427 -0.325376 0.938139   
     length 2.32487  
     axis -90 -7.62852e-016 -20   XYZ
    dof rx rz
    limits (-45.0 90.0)
           (-20.0 70.0)
  end
  begin
     id 10 
     name rtoes
     direction -1.53525e-011 -4.21868e-011 1   
     length 1.15233   
     axis -90 -7.62852e-016 -20   XYZ
    dof rx
    limits (-90.0 20.0)
  end
  begin
     id 11 
     name lowerback
     direction 0.0287568 0.999577 -0.00434502   
     length 2.15243   
     axis 0 0 0   XYZ
    dof rx ry rz
    limits (-20.0 45.0)
           (-30.0 30.0)
           (-30.0 30.0)
  end
  begin
     id 12 
     name upperback
     direction 0.0294009 0.99956 0.00404628   
     length 2.15427   
     axis 0 0 0   XYZ
    dof rx ry rz
    limits (-20.0 45.0)
           (-30.0 30.0)
           (-30.0 30.0)
  end
  begin
     id 13 
     name thorax
     direction 0.0151014 0.999868 0.0059419   
     length 2.14898   
     axis 0 0 0   XYZ
    dof rx ry rz
    limits (-20.0 45.0)
           (-30.0 30.0)
           (-30.0 30.0)
  end
  begin
     id 14 
     name lowerneck
     direction -0.0249197 0.989906 0.139515   
     length 1.6861   
     axis 0 0 0   XYZ
    dof rx ry rz
    limits (-20.0 45.0)
           (-30.0 30.0)
           (-30.0 30.0)
  end
  begin
     id 15 
     name upperneck
     direction 0.0438463 0.988795 -0.142693   
     length 1.71276   
     axis 0 0 0   XYZ
    dof rx ry rz
    limits (-20.0 45.0)
           (-30.0 30.0)
           (-30.0 30.0)
  end
  begin
     id 16
     name head
     direction 0.0148499 0.997845 -0.0639186  
     length 1.7209  
     axis 0 0 0   XYZ
    dof rx ry rz
    limits (-20.0 45.0)
           (-30.0 30.0)
           (-30.0 30.0)
  end
  begin
     id 17 
     name lclavicle
     direction 0.940298 0.323464 -0.105876  
     length 3.9048  
     axis 0 0 0   XYZ
    dof ry rz
    limits (-20.0 10.0)
           (0.0 20.0)
  end
  begin
     id 18 
     name lhumerus
     direction 1 -4.48954e-011 -4.9675e-028   
     length 4.6851   
     axis 180 -30 -90   XYZ
    dof rx ry rz
    limits (-60.0 90.0)
           (-90.0 90.0)
           (-90.0 90.0)
  end
  begin
     id 19
     name lradius
     direction 1 -4.48992e-011 -1.03359e-026   
     length 3.39626   
     axis 180 -30 -90   XYZ
    dof rx
    limits (-10.0 170.0)
  end
  begin
     id 20
     name lwrist
     direction 1 -4.48906e-011 -1.67336e-026   
     length 1.69813   
     axis 9.90442e-015 90 90   XYZ
    dof ry
    limits (-180.0 0.0)
 end
  begin
     id 21 
     name lhand
     direction 1 -4.49006e-011 -3.34673e-026   
     length 0.486078   
     axis 2.1355e-014 90 90   XYZ
    dof rx rz
    limits (-90.0 90.0)
           (-45.0 45.0)
  end
  begin
     id 22 
     name lfingers
     direction 1 -4.48992e-011 -6.69345e-026   
     length 0.391889   
     axis 4.27099e-014 90 90   XYZ
    dof rx
    limits (0.0 90.0)
  end
  begin
     id 23
     name lthumb
     direction 0.707107 -6.34926e-011 0.707107   
     length 0.562676   
     axis -90 45 2.85299e-015   XYZ
    dof rx rz
    limits (-45.0 45.0)
           (-45.0 45.0)
  end
  begin
     id 24 
     name rclavicle
     direction -0.882459 0.414895 -0.221648   
     length 3.44646  
     axis 0 0 0   XYZ 
    dof ry rz
    limits (-10.0 20.0)
           (-20.0 0.0)
  end
  begin
     id 25 
     name rhumerus
     direction -1 -4.48962e-011 -2.37984e-027  
     length 5.55576   
     axis 180 30 90   XYZ
    dof rx ry rz
    limits (-90.0 60.0)
           (-90.0 90.0)
           (-90.0 90.0)
  end
  begin
     id 26 
     name rradius
     direction -1 -4.48982e-011 -6.86791e-027   
     length 3.32774   
     axis 180 30 90   XYZ
    dof rx
    limits (-10.0 170.0)
  end
  begin
     id 27 
     name rwrist
     direction -1 -4.48961e-011 -1.67336e-026   
     length 1.66387   
     axis 9.90442e-015 -90 -90   XYZ
    dof ry
    limits (-180.0 0.0)
  end
  begin
     id 28
     name rhand
     direction -1 -4.4897e-011 -3.34673e-026   
     length 0.507628   
     axis 2.1355e-014 -90 -90   XYZ
    dof rx rz
    limits (-90.0 90.0)
           (-45.0 45.0)
  end
  begin
     id 29
     name rfingers
     direction -1 -4.48854e-011 -6.69345e-026   
     length 0.409263   
     axis 4.27099e-014 -90 -90   XYZ
    dof rx
    limits (0.0 90.0)
  end
  begin
     id 30
     name rthumb
     direction -0.707107 -6.34913e-011 0.707107   
     length 0.587622   
     axis -90 -45 -2.85299e-015   XYZ
    dof rx rz
    limits (-45.0 45.0)
           (-45.0 45.0)
  end
:hierarchy
  begin
    root lhipjoint rhipjoint lowerback
    lhipjoint lfemur
    lfemur ltibia
    ltibia lfoot
    lfoot ltoes
    rhipjoint rfemur
    rfemur rtibia
    rtibia rfoot
    rfoot rtoes
    lowerback upperback
    upperback thorax
    thorax lowerneck lclavicle rclavicle
    lowerneck upperneck
    upperneck head
    lclavicle lhumerus
    lhumerus lradius
    lradius lwrist
    lwrist lhand lthumb
    lhand lfingers
    rclavicle rhumerus
    rhumerus rradius
    rradius rwrist
    rwrist rhand rthumb
    rhand rfingers
  end

#!OML:ASF E:\motion texture\Top Level 1\Subject 1\Session 1\male.ASF
:FULLY-SPECIFIED
:DEGREES
107
root 40.6563 17.581 5.2583 103.878 -81.6036 -98.2691
lowerback 1.36158 0.580181 6.45157
upperback -0.34681 0.801862 4.76857
thorax -1.09782 0.314001 1.28116
lowerneck -19.9987 -4.49428 -7.1861
upperneck 9.9224 -5.3112 7.77723
head 6.67762 -2.18543 3.07626
rclavicle -5.96354e-015 -7.15625e-014
rhumerus -26.7937 3.81617 -85.9072
rradius 56.8335
rwrist -4.44555
rhand -13.512 -11.3617
rfingers 7.12502
rthumb 12.5996 -40.9618
lclavicle -5.96354e-015 -7.15625e-014
lhumerus -39.978 3.23574 88.0736
lradius 35.7167
lwrist -16.4697
lhand -11.7782 18.3242
lfingers 7.12502
lthumb 14.2708 47.8139
rfemur -7.77373 0.490496 33.5893
rtibia 22.386
rfoot -15.2171 -9.41153
rtoes 13.4876
lfemur -54.747 7.41044 -9.9048
ltibia 89.7846
lfoot 16.2492 -77.1506
ltoes 3.29839
108
root 40.6387 17.5849 5.24735 104.846 -81.552 -99.4587
lowerback 1.83719 0.675205 6.42455
upperback -0.26742 0.970887 4.75367
thorax -1.27935 0.395926 1.27236
lowerneck -20.1334 -4.55135 -7.17231
upperneck 9.81609 -5.38241 7.80281
head 6.67098 -2.21547 3.07209
rclavicle 5.31749e-015 6.59965e-014
rhumerus -25.7248 4.43936 -86.0875
rradius 58.555
rwrist -4.6514
rhand -13.6727 -11.3886
rfingers 7.12502
rthumb 12.4446 -40.9981
lclavicle 5.31749e-015 6.59965e-014
lhumerus -40.3386 2.81303 88.2409
lradius 36.2568
lwrist -16.0956
lhand -11.7961 18.3193
lfingers 7.12502
lthumb 14.2535 47.8101
rfemur -7.34091 0.604329 33.6621
rtibia 22.1679
rfoot -15.1916 -9.40628
rtoes 13.6115
lfemur -57.5602 7.7696 -10.2899
ltibia 89.4004
lfoot 184.915 -77.316
ltoes 2.28844
109
root 40.6178 17.5899 5.23807 106.133 -81.4771 -100.964
lowerback 2.30992 0.788087 6.4246
upperback -0.182389 1.16299 4.73121
thorax -1.45215 0.489214 1.2382
lowerneck -20.3472 -4.61421 -7.16573
upperneck 9.76455 -5.4606 7.84739
head 6.69625 -2.24538 3.07378
rclavicle -2.48481e-015 -8.5875e-014
rhumerus -24.5493 5.0227 -86.2303
rradius 60.2103
rwrist -4.77477
rhand -13.7984 -11.3735
rfingers 7.12502
rthumb 12.3235 -40.9903
lclavicle -2.48481e-015 -8.5875e-014
lhumerus -40.7276 2.37814 88.4023
lradius 36.8425
lwrist -15.6885
lhand -11.7903 18.2888
lfingers 7.12502
lthumb 14.2591 47.7793
rfemur -6.89169 0.724188 33.7327
rtibia 21.9392
rfoot -15.1683 -9.34931
rtoes 13.7408
lfemur -60.3894 8.13199 -10.6874
ltibia 86.3588
lfoot 188.383 -51.7485
ltoes 1.25696
110
root 40.5932 17.5961 5.22955 107.462 -81.3789 -102.528
lowerback 2.74801 0.906544 6.44826
upperback -0.0756817 1.35741 4.70752
thorax -1.58215 0.58433 1.18815
lowerneck -20.5558 -4.68049 -7.14724
upperneck 9.7043 -5.54327 7.87116
head 6.71705 -2.27895 3.06609
rclavicle 1.83876e-015 3.10104e-014
rhumerus -23.2949 5.58922 -86.3337
rradius 61.8209
rwrist -4.85895
rhand -13.862 -11.3309
rfingers 7.12502
rthumb 12.2622 -40.9514
lclavicle 1.83876e-015 3.10104e-014
lhumerus -41.1364 1.93179 88.5589
lradius 37.471
lwrist -15.2502
lhand -11.7667 18.2341
lfingers 7.12502
lthumb 14.2818 47.723
rfemur -6.39064 0.837732 33.813
rtibia 21.675
rfoot -15.142 -9.26521
rtoes 13.8841
lfemur -63.2078 8.46397 -11.078
ltibia 81.9897
lfoot 188.956 -25.9483
ltoes 0.839498
111
root 40.5659 17.6029 5.22232 108.939 -81.2542 -104.238
lowerback 3.1546 1.03796 6.4995
upperback 0.0388689 1.56582 4.67976
thorax -1.68461 0.686593 1.11676
lowerneck -20.7604 -4.74962 -7.13496
upperneck 9.65032 -5.62985 7.90179
head 6.7399 -2.31407 3.06112
rclavicle -7.50412e-015 -9.14409e-014
rhumerus -21.9983 6.14656 -86.3956
rradius 63.3929
rwrist -4.92604
rhand -13.8847 -11.2429
rfingers 7.12502
rthumb 12.2403 -40.8648
lclavicle -7.50412e-015 -9.14409e-014
lhumerus -41.5762 1.46631 88.7129
lradius 38.1464
lwrist -14.786
lhand -11.7298 18.1411
lfingers 7.12502
lthumb 14.3173 47.6275
rfemur -5.8707 0.946966 33.8967
rtibia 21.391
rfoot -15.1112 -9.13779
rtoes 14.0306
lfemur -66.0362 8.77353 -11.4666
ltibia 78.2275
lfoot 189.291 0.0445951
ltoes 0.971382
112
root 40.5351 17.6105 5.2159 110.425 -81.1175 -105.972
lowerback 3.53514 1.17552 6.56673
upperback 0.162806 1.77959 4.64448
thorax -1.76106 0.791919 1.02727
lowerneck -20.9424 -4.8209 -7.12759
upperneck 9.59185 -5.72097 7.94348
head 6.75849 -2.35115 3.06013
rclavicle 3.97569e-016 2.38542e-015
rhumerus -20.6878 6.70357 -86.4175
rradius 64.9342
rwrist -5.01139
rhand -13.8795 -11.1385
rfingers 7.12502
rthumb 12.2453 -40.76
lclavicle 3.97569e-016 2.38542e-015
lhumerus -42.0482 0.974005 88.8632
lradius 38.8633
lwrist -14.2966
lhand -11.6909 18.0019
lfingers 7.12502
lthumb 14.3549 47.4856
rfemur -5.30281 1.04864 33.9758
rtibia 21.0686
rfoot -15.071 -8.99088
rtoes 14.1681
lfemur -68.84 9.03668 -11.8509
ltibia 75.5144
lfoot 189.404 0.427532
ltoes 1.30779
113
root 40.501 17.6186 5.21 111.977 -80.9721 -107.786
lowerback 3.88874 1.3235 6.63833
upperback 0.296539 2.00403 4.6002
thorax -1.81046 0.903197 0.924604
lowerneck -21.0892 -4.89448 -7.12676
upperneck 9.52371 -5.81728 7.99898
head 6.7694 -2.39064 3.06435
rclavicle -2.03754e-015 -2.94201e-014
rhumerus -19.3934 7.26859 -86.3943
rradius 66.4573
rwrist -5.14267
rhand -13.8673 -11.0278
rfingers 7.12502
rthumb 12.2571 -40.6486
lclavicle -2.03754e-015 -2.94201e-014
lhumerus -42.552 0.448199 89.0105
lradius 39.6227
lwrist -13.7882
lhand -11.6474 17.8279
lfingers 7.12502
lthumb 14.3968 47.3086
rfemur -4.68734 1.15158 34.0452
rtibia 20.7128
rfoot -15.0248 -8.82722
rtoes 14.3076
lfemur -71.6016 9.25962 -12.2299
ltibia 72.9863
lfoot 189.603 0.865008
ltoes 1.71321
